<?xml version="1.0" encoding="UTF-8" ?>
<!DOCTYPE svg PUBLIC "-//W3C//DTD SVG 1.1//EN" "http://www.w3.org/Graphics/SVG/1.1/DTD/svg11.dtd">
<svg width="28pt" height="29pt" viewBox="0 0 28 29" version="1.1" xmlns="http://www.w3.org/2000/svg">
<g id="#5b9edeff">
<path fill="#5b9ede" opacity="1.00" d=" M 5.19 4.88 C 9.16 1.24 15.29 0.21 20.07 2.83 C 23.63 4.45 25.66 7.94 27.02 11.44 C 25.91 11.57 24.80 11.70 23.69 11.82 C 22.58 8.96 20.52 6.73 17.91 5.16 C 14.14 4.11 9.92 4.68 7.11 7.58 C 8.34 8.60 9.58 9.62 10.85 10.59 C 7.71 10.85 4.55 10.81 1.39 10.77 C 1.51 7.97 1.51 5.16 1.52 2.36 C 1.85 2.43 2.50 2.57 2.82 2.65 C 3.56 3.44 4.34 4.20 5.19 4.88 Z" />
<path fill="#5b9ede" opacity="1.00" d=" M 1.08 17.44 C 2.22 17.30 3.35 17.18 4.48 17.06 C 5.81 20.19 8.20 23.18 11.72 23.85 C 15.12 24.95 18.62 23.42 21.21 21.26 C 20.47 20.72 18.99 19.65 18.25 19.12 C 18.34 18.77 18.50 18.08 18.58 17.74 C 21.31 18.00 24.04 18.15 26.77 18.14 C 26.79 21.17 26.64 24.20 26.42 27.22 C 25.32 26.15 24.27 25.02 23.25 23.87 C 19.24 27.19 13.49 28.68 8.65 26.26 C 4.72 24.86 2.63 21.04 1.08 17.44 Z" />
</g>
</svg>
