<svg xmlns="http://www.w3.org/2000/svg" width="207" height="46" viewBox="0 0 207 46"><defs><clipPath id="5uyua"><path fill="#fff" d="M9.978-.045h187.04c1.747 0 3.32.747 4.416 1.94a.56.56 0 0 1 .143-.02c1.856 0 5.28 9.457 5.28 21.12 0 11.665-3.424 21.12-5.28 21.12a.56.56 0 0 1-.142-.018 5.984 5.984 0 0 1-4.417 1.94H9.978a5.984 5.984 0 0 1-4.418-1.94.56.56 0 0 1-.142.019c-1.857 0-5.281-9.456-5.281-21.121 0-11.663 3.424-21.12 5.281-21.12a.56.56 0 0 1 .143.02 5.985 5.985 0 0 1 4.417-1.94z"/></clipPath></defs><g><g><path fill="none" stroke="#b8bfca" stroke-miterlimit="50" stroke-width="1.46" d="M9.978-.045h187.04c1.747 0 3.32.747 4.416 1.94a.56.56 0 0 1 .143-.02c1.856 0 5.28 9.457 5.28 21.12 0 11.665-3.424 21.12-5.28 21.12a.56.56 0 0 1-.142-.018 5.984 5.984 0 0 1-4.417 1.94H9.978a5.984 5.984 0 0 1-4.418-1.94.56.56 0 0 1-.142.019c-1.857 0-5.281-9.456-5.281-21.121 0-11.663 3.424-21.12 5.281-21.12a.56.56 0 0 1 .143.02 5.985 5.985 0 0 1 4.417-1.94z" clip-path="url(&quot;#5uyua&quot;)"/></g></g></svg>