<?xml version="1.0" encoding="UTF-8" ?>
<!DOCTYPE svg PUBLIC "-//W3C//DTD SVG 1.1//EN" "http://www.w3.org/Graphics/SVG/1.1/DTD/svg11.dtd">
<svg width="35pt" height="35pt" viewBox="0 0 35 35" version="1.1" xmlns="http://www.w3.org/2000/svg">
<g id="#ffffffff">
<path fill="#ffffff" opacity="1.00" d=" M 10.48 1.65 C 17.06 -1.38 25.40 0.36 30.23 5.75 C 35.04 10.84 36.19 18.95 33.01 25.18 C 30.00 31.42 22.99 35.41 16.09 34.75 C 8.23 34.25 1.34 27.73 0.37 19.93 C -0.82 12.47 3.54 4.62 10.48 1.65 M 10.35 11.48 C 8.70 12.76 9.21 15.15 8.94 16.97 C 9.01 19.01 8.36 22.25 11.02 22.89 C 15.55 23.10 20.15 23.28 24.67 22.75 C 26.81 20.75 25.93 17.47 25.94 14.88 C 25.79 13.60 25.61 11.33 23.87 11.35 C 19.38 11.15 14.83 10.99 10.35 11.48 Z" />
<path fill="#ffffff" opacity="1.00" d=" M 11.13 13.07 C 13.33 14.83 15.53 16.60 17.61 18.50 C 19.60 16.58 21.66 14.74 23.85 13.05 C 22.23 15.56 20.63 18.53 17.62 19.57 C 14.43 18.81 12.88 15.47 11.13 13.07 Z" />
</g>
<g id="#bddaf8ff">
<path fill="#bddaf8" opacity="1.00" d=" M 10.35 11.48 C 14.83 10.99 19.38 11.15 23.87 11.35 C 25.61 11.33 25.79 13.60 25.94 14.88 C 25.93 17.47 26.81 20.75 24.67 22.75 C 20.15 23.28 15.55 23.10 11.02 22.89 C 8.36 22.25 9.01 19.01 8.94 16.97 C 9.21 15.15 8.70 12.76 10.35 11.48 M 11.13 13.07 C 12.88 15.47 14.43 18.81 17.62 19.57 C 20.63 18.53 22.23 15.56 23.85 13.05 C 21.66 14.74 19.60 16.58 17.61 18.50 C 15.53 16.60 13.33 14.83 11.13 13.07 Z" />
</g>
</svg>
