<?xml version="1.0" encoding="UTF-8" ?>
<!DOCTYPE svg PUBLIC "-//W3C//DTD SVG 1.1//EN" "http://www.w3.org/Graphics/SVG/1.1/DTD/svg11.dtd">
<svg width="35pt" height="35pt" viewBox="0 0 35 35" version="1.1" xmlns="http://www.w3.org/2000/svg">
<g id="#ffffffff">
<path fill="#ffffff" opacity="1.00" d=" M 10.50 1.64 C 15.77 -0.72 22.20 -0.21 26.99 3.01 C 31.93 6.21 35.02 12.06 34.80 17.95 C 34.70 24.01 31.14 29.83 25.80 32.69 C 20.53 35.62 13.74 35.49 8.59 32.34 C 3.03 29.08 -0.34 22.52 0.25 16.09 C 0.69 9.86 4.80 4.14 10.50 1.64 M 17.48 8.80 C 20.60 11.65 23.51 14.70 26.41 17.76 C 25.52 15.44 24.89 12.75 22.80 11.17 C 21.20 10.04 19.27 9.53 17.48 8.80 M 10.33 11.99 C 9.34 18.10 14.23 23.78 20.01 24.98 C 21.34 24.56 22.54 23.83 23.80 23.25 C 22.84 22.14 21.93 21.01 20.99 19.89 C 19.67 20.28 18.35 20.67 17.03 21.07 C 14.76 19.09 13.74 16.47 14.85 13.55 C 13.35 13.02 11.83 12.55 10.33 11.99 M 22.55 18.16 C 22.32 14.92 19.97 12.94 17.05 11.96 C 18.47 14.35 20.37 16.42 22.55 18.16 Z" />
</g>
<g id="#d2e6fbff">
<path fill="#d2e6fb" opacity="1.00" d=" M 17.48 8.80 C 19.27 9.53 21.20 10.04 22.80 11.17 C 24.89 12.75 25.52 15.44 26.41 17.76 C 23.51 14.70 20.60 11.65 17.48 8.80 Z" />
</g>
<g id="#b1d3f7ff">
<path fill="#b1d3f7" opacity="1.00" d=" M 10.33 11.99 C 11.83 12.55 13.35 13.02 14.85 13.55 C 13.74 16.47 14.76 19.09 17.03 21.07 C 18.35 20.67 19.67 20.28 20.99 19.89 C 21.93 21.01 22.84 22.14 23.80 23.25 C 22.54 23.83 21.34 24.56 20.01 24.98 C 14.23 23.78 9.34 18.10 10.33 11.99 Z" />
</g>
<g id="#cce3faff">
<path fill="#cce3fa" opacity="1.00" d=" M 22.55 18.16 C 20.37 16.42 18.47 14.35 17.05 11.96 C 19.97 12.94 22.32 14.92 22.55 18.16 Z" />
</g>
</svg>
