<?xml version="1.0" encoding="UTF-8" ?>
<!DOCTYPE svg PUBLIC "-//W3C//DTD SVG 1.1//EN" "http://www.w3.org/Graphics/SVG/1.1/DTD/svg11.dtd">
<svg width="35pt" height="35pt" viewBox="0 0 35 35" version="1.1" xmlns="http://www.w3.org/2000/svg">
<g id="#f5f8fbff">
<path fill="#f5f8fb" opacity="1.00" d=" M 10.50 1.69 C 19.71 -2.73 31.82 3.03 34.16 12.96 C 37.15 22.63 29.77 33.67 19.71 34.60 C 10.64 36.08 1.40 28.99 0.40 19.88 C -0.79 12.44 3.59 4.64 10.50 1.69 M 17.43 8.66 C 18.47 10.85 20.86 11.74 22.35 13.54 C 23.62 15.00 24.80 16.56 26.29 17.81 C 25.84 13.11 21.90 9.59 17.43 8.66 M 10.11 14.93 C 11.14 19.77 15.24 23.92 20.05 25.07 C 21.77 25.17 22.48 23.33 23.38 22.22 C 22.64 21.39 21.84 20.63 20.97 19.95 C 19.77 20.39 18.52 20.62 17.31 20.98 C 16.23 19.96 15.20 18.88 14.19 17.79 C 14.77 15.57 14.83 13.29 12.95 11.66 C 11.79 12.55 10.10 13.18 10.11 14.93 M 16.81 12.46 C 18.52 14.42 20.39 16.24 22.27 18.05 C 22.55 14.78 19.87 12.65 16.81 12.46 Z" />
</g>
<g id="#d0e0f8ff">
<path fill="#d0e0f8" opacity="1.00" d=" M 17.43 8.66 C 21.90 9.59 25.84 13.11 26.29 17.81 C 24.80 16.56 23.62 15.00 22.35 13.54 C 20.86 11.74 18.47 10.85 17.43 8.66 Z" />
</g>
<g id="#b5cff2ff">
<path fill="#b5cff2" opacity="1.00" d=" M 10.11 14.93 C 10.10 13.18 11.79 12.55 12.95 11.66 C 14.83 13.29 14.77 15.57 14.19 17.79 C 15.20 18.88 16.23 19.96 17.31 20.98 C 18.52 20.62 19.77 20.39 20.97 19.95 C 21.84 20.63 22.64 21.39 23.38 22.22 C 22.48 23.33 21.77 25.17 20.05 25.07 C 15.24 23.92 11.14 19.77 10.11 14.93 Z" />
</g>
<g id="#ccdef7ff">
<path fill="#ccdef7" opacity="1.00" d=" M 16.81 12.46 C 19.87 12.65 22.55 14.78 22.27 18.05 C 20.39 16.24 18.52 14.42 16.81 12.46 Z" />
</g>
</svg>
