<?xml version="1.0" encoding="UTF-8"?>
<!DOCTYPE svg PUBLIC "-//W3C//DTD SVG 1.1//EN" "http://www.w3.org/Graphics/SVG/1.1/DTD/svg11.dtd">
<!-- Creator: CorelDRAW X6 -->
<svg xmlns="http://www.w3.org/2000/svg" xml:space="preserve" width="54.5945mm" height="15.9823mm" version="1.1" style="shape-rendering:geometricPrecision; text-rendering:geometricPrecision; image-rendering:optimizeQuality; fill-rule:evenodd; clip-rule:evenodd"
viewBox="0 0 6769 1982"
 xmlns:xlink="http://www.w3.org/1999/xlink">
 <defs>
  <style type="text/css">
   <![CDATA[
    .fil0 {fill:#7CB1E0}
    .fil2 {fill:#898989;fill-rule:nonzero}
    .fil1 {fill:#FEFEFE;fill-rule:nonzero}
   ]]>
  </style>
 </defs>
 <g id="Слой_x0020_1">
  <metadata id="CorelCorpID_0Corel-Layer"/>
  <g id="_193252352">
   <path class="fil0" d="M1216 0c672,0 1216,444 1216,991 0,547 -545,991 -1216,991 -672,0 -1216,-444 -1216,-991 0,-547 545,-991 1216,-991z"/>
   <g>
    <path class="fil1" d="M639 912l9 0c22,-38 48,-71 79,-99 30,-29 63,-43 97,-42 25,0 47,9 64,26 17,17 25,44 23,78 0,5 0,11 -1,17 -1,6 -1,11 -2,15l6 0c2,-3 4,-6 6,-9 2,-3 4,-6 5,-9 5,-7 11,-16 18,-25 7,-9 11,-16 14,-19 40,-50 85,-74 136,-74 37,0 66,12 88,35 22,23 32,56 30,97 -2,24 -6,45 -12,63 -9,31 -22,65 -37,101 -23,56 -31,92 -26,109 3,13 11,20 23,20 25,0 63,-35 112,-105l36 28c-34,50 -69,92 -104,124 -35,32 -74,49 -116,49 -29,0 -51,-9 -66,-27 -15,-18 -23,-39 -25,-65 0,-21 10,-62 29,-121 7,-20 12,-35 16,-45 4,-10 9,-24 16,-43 17,-45 25,-76 25,-93 0,-13 -4,-24 -13,-32 -8,-8 -20,-12 -34,-12 -27,1 -56,22 -85,62 -29,40 -51,95 -67,165l-29 132c-5,21 -8,42 -8,62l-137 0c25,-63 92,-337 88,-385 0,-15 -4,-25 -12,-30 -8,-4 -15,-7 -21,-7 -32,0 -68,35 -107,104 -39,70 -67,154 -85,254 -4,24 -6,45 -6,62l-138 0c9,-20 16,-43 21,-69l65 -288c3,-17 16,-55 5,-68 -4,-5 -15,-8 -32,-8l-49 0 10 -46c54,-3 127,-10 221,-21l-31 136zm1096 223l29 29c-62,82 -133,125 -215,128 -37,0 -69,-8 -96,-25 -27,-16 -49,-40 -64,-71 -15,-31 -22,-66 -22,-105 1,-60 16,-115 46,-165 30,-50 69,-90 117,-118 48,-28 94,-42 140,-40 40,2 71,16 93,42 22,26 32,54 30,82 0,23 -7,43 -22,60 -15,17 -32,26 -53,26 -18,0 -33,-6 -46,-19 -13,-13 -19,-29 -18,-50 2,-19 10,-35 25,-50 4,-5 7,-10 10,-14 2,-4 2,-9 1,-14 0,-3 -2,-6 -7,-9 -5,-3 -10,-4 -16,-4 -21,0 -45,14 -71,42 -26,28 -48,65 -65,110 -18,45 -27,92 -27,141 0,71 28,109 83,115 43,0 92,-30 149,-91z"/>
    <path class="fil1" d="M1994 829c0,13 -4,25 -11,37 -8,12 -19,21 -33,27 -14,7 -29,10 -44,10 -20,0 -36,-5 -49,-15 -12,-10 -18,-22 -18,-36 0,-10 3,-19 9,-24 6,-6 12,-9 20,-9 7,-1 13,2 18,6 6,5 9,11 9,18 0,7 -2,12 -6,17 -3,3 -5,5 -5,6 -1,2 -2,4 -2,5 3,8 11,12 25,12 15,0 26,-4 34,-12 8,-8 11,-15 11,-23 -1,-11 -12,-22 -35,-31 -14,-6 -23,-11 -28,-14 -16,-10 -24,-25 -24,-43 -1,-12 2,-24 8,-34 6,-11 15,-19 26,-26 11,-7 25,-10 41,-11 17,0 32,4 45,12 13,8 20,19 20,33 0,8 -3,16 -8,22 -5,6 -12,9 -20,9 -7,0 -13,-2 -18,-6 -4,-4 -7,-10 -7,-17 -1,-4 0,-8 2,-11 0,-1 1,-2 1,-3 1,-1 1,-3 2,-4 1,-1 2,-2 2,-4 0,-2 -2,-4 -5,-6 -3,-2 -8,-3 -15,-4 -11,0 -20,3 -27,9 -7,7 -10,14 -10,22 1,8 5,14 13,19 3,2 12,6 27,11 34,12 52,32 52,59z"/>
   </g>
  </g>
  <path class="fil2" d="M2863 1329m635 -656l-37 220 -26 0c-14,-121 -62,-180 -142,-180 -22,0 -39,4 -50,11 -12,8 -19,21 -24,41l-45 204c26,0 49,-5 67,-15 18,-10 33,-23 43,-40 12,-16 20,-37 28,-60l30 0 -68 300 -30 0c2,-11 3,-36 3,-73 0,-23 -8,-41 -24,-51 -15,-11 -37,-16 -62,-16l-44 187c-1,4 -3,12 -6,22 -3,11 -5,19 -6,27l0 14c1,7 6,12 14,14 9,2 25,4 48,4 14,0 33,-2 53,-7 20,-4 42,-13 67,-26 24,-13 47,-32 69,-57 23,-26 41,-58 55,-97l28 0 -53 235 -523 0 10 -40c47,0 74,-16 82,-50l98 -419c9,-41 13,-69 13,-87 0,-9 -3,-14 -10,-16 -7,-4 -19,-5 -38,-5l-19 0 8 -40 491 0zm63 656m200 -324l5 0c52,-85 108,-127 167,-127 52,0 78,32 78,95 0,12 -1,21 -3,28l6 0c15,-36 38,-65 66,-88 29,-23 62,-35 98,-35 30,0 53,8 71,23 18,16 27,37 27,63 0,11 -1,20 -4,29l-45 191c-4,15 -6,29 -6,40 0,19 8,29 22,29 13,0 28,-10 44,-30 17,-19 33,-41 45,-64l37 22c-25,42 -48,76 -69,99 -20,24 -39,41 -55,49 -16,9 -32,14 -48,14 -63,0 -94,-31 -94,-94 0,-21 3,-42 9,-65l43 -183c1,-5 2,-10 2,-13 0,-22 -11,-33 -33,-33 -18,0 -37,9 -55,26 -18,16 -36,41 -51,71 -15,31 -28,66 -38,104l-28 117c-4,14 -6,32 -6,55l-126 0c11,-23 17,-43 20,-60l49 -206c9,-38 14,-63 14,-76 0,-11 -3,-18 -9,-23 -6,-6 -12,-9 -19,-9 -42,0 -87,53 -132,159 -27,66 -43,119 -50,159 -4,25 -6,43 -6,55l-127 0c11,-23 17,-43 20,-60l61 -256c6,-26 9,-41 9,-44l0 -11c-2,-11 -14,-16 -36,-16l-45 0 10 -39 35 0c31,0 89,-5 174,-14l-27 115zm663 324m479 -170l33 18c-22,41 -41,72 -59,96 -15,20 -30,35 -45,45 -14,11 -28,17 -40,20 -13,3 -24,4 -37,4 -27,0 -45,-9 -55,-27 -11,-17 -15,-37 -15,-57l-4 0c-22,32 -43,54 -65,67 -22,12 -47,17 -77,17 -29,0 -55,-11 -79,-32 -24,-21 -36,-61 -36,-119 0,-50 14,-99 40,-149 26,-48 58,-89 96,-120 39,-31 75,-46 109,-46 18,0 36,5 50,14 14,10 24,24 28,42l6 0 13 -44 114 0c-13,18 -22,45 -31,81l-52 217c-7,32 -11,51 -11,57 0,13 8,19 22,19 14,0 29,-9 43,-27 14,-17 32,-43 51,-78zm-308 117c25,0 45,-15 61,-45 15,-31 30,-69 43,-118 3,-12 6,-20 9,-28 2,-8 4,-16 7,-24 2,-9 4,-18 5,-29 2,-11 3,-22 3,-35 0,-24 -3,-43 -9,-56 -5,-13 -15,-18 -32,-18 -22,0 -42,15 -62,47 -18,33 -32,64 -41,96 -10,32 -17,61 -24,88 -5,21 -8,43 -8,66 0,19 5,34 14,42 9,10 20,14 34,14zm345 53m182 -187l0 -3c-22,-12 -39,-27 -51,-46 -13,-19 -18,-41 -18,-63 0,-26 9,-51 25,-73 16,-23 41,-41 70,-54 31,-14 67,-20 107,-20 35,0 69,5 103,14 9,-12 18,-23 28,-35 10,-13 18,-23 27,-32 9,-9 19,-15 30,-21 12,-5 23,-8 35,-8 16,0 30,5 41,15 12,10 17,22 17,36 0,14 -3,26 -11,37 -7,11 -16,16 -30,16 -19,0 -32,-7 -38,-21 -3,-7 -6,-11 -11,-11 -8,0 -15,4 -24,14 -9,9 -16,19 -23,31 23,13 40,29 50,48 11,20 16,39 16,57 0,21 -6,43 -18,67 -13,23 -32,42 -60,59 -28,16 -65,24 -108,24 -42,0 -76,-3 -99,-10 -43,14 -65,30 -65,51 0,21 27,32 80,32 13,-1 31,-1 55,-1 47,0 84,8 111,23 27,16 45,35 56,57 10,21 14,42 14,63 0,27 -8,54 -23,82 -15,27 -41,51 -77,69 -37,19 -84,29 -142,29 -54,0 -100,-7 -138,-20 -39,-13 -67,-30 -86,-51 -18,-21 -28,-43 -28,-67 0,-22 9,-43 27,-63 18,-20 47,-33 86,-40 -14,-10 -24,-21 -31,-35 -7,-14 -11,-27 -11,-40 0,-46 37,-83 111,-111zm52 -77c0,23 6,41 18,53 13,13 27,18 45,18 20,0 39,-8 55,-22 16,-15 29,-34 38,-56 10,-22 14,-43 14,-63 0,-21 -5,-39 -14,-52 -10,-14 -24,-20 -44,-20 -22,0 -42,8 -60,22 -16,15 -30,35 -39,57 -9,22 -14,43 -14,63zm-63 288c-22,4 -41,13 -55,27 -14,14 -21,30 -21,47 0,21 11,41 33,60 22,18 61,28 117,28 58,0 100,-10 126,-29 26,-19 39,-41 39,-65 0,-40 -36,-60 -108,-60 -4,0 -11,0 -21,1 -11,0 -17,0 -22,0 -31,0 -60,-3 -87,-10zm480 -24m205 -439l-69 291c-8,31 -12,51 -12,61 0,15 5,23 14,23 13,0 25,-8 40,-23 14,-15 36,-41 64,-77l30 29c-28,44 -57,80 -87,107 -29,28 -62,41 -99,41 -24,0 -42,-8 -57,-23 -14,-15 -21,-34 -21,-55 0,-18 5,-48 15,-92l38 -156c1,-5 2,-9 3,-12 0,-3 1,-9 3,-15 1,-4 3,-9 4,-15l0 -11c-1,-8 -4,-14 -10,-16 -6,-3 -17,-5 -33,-5l-27 0 13 -39 34 0c22,0 75,-5 158,-14zm25 -144c0,16 -7,31 -21,43 -14,13 -32,18 -52,18 -16,0 -31,-8 -43,-21 -13,-14 -18,-32 -18,-52 0,-16 8,-32 21,-43 14,-13 32,-18 52,-18 11,0 21,3 31,10 10,7 17,15 22,27 6,11 9,23 9,37zm106 583m345 -126l28 27c-62,75 -129,113 -202,113 -53,0 -95,-16 -125,-49 -31,-34 -46,-76 -46,-128 0,-51 14,-98 42,-143 29,-44 65,-80 109,-106 45,-26 89,-39 133,-39 38,0 67,12 87,36 19,24 29,49 29,75 0,20 -7,38 -21,53 -14,14 -31,22 -50,22 -16,0 -30,-6 -41,-16 -13,-11 -18,-25 -18,-44 0,-15 8,-31 22,-45 8,-8 12,-16 12,-24 0,-9 -7,-13 -22,-13 -13,0 -28,6 -45,18 -17,13 -35,32 -52,58 -15,24 -29,54 -40,89 -11,35 -16,68 -16,97 0,39 9,65 25,79 16,14 35,21 54,21 39,0 85,-27 139,-81zm118 126m357 -148c0,30 -10,57 -28,81 -18,25 -43,44 -75,59 -31,14 -65,21 -99,21 -31,0 -59,-5 -82,-14 -23,-11 -41,-23 -54,-41 -12,-17 -18,-37 -18,-57 0,-22 7,-41 20,-53 14,-13 29,-18 45,-18 17,0 32,5 43,14 13,10 18,22 18,39 0,9 -1,16 -4,22 -2,6 -7,13 -14,20 -7,7 -11,14 -11,20 0,16 19,24 56,24 37,0 63,-9 78,-25 15,-16 23,-33 23,-50 0,-14 -8,-27 -22,-38 -14,-11 -34,-20 -57,-30 -31,-14 -55,-25 -71,-36 -17,-12 -31,-23 -39,-37 -9,-14 -13,-31 -13,-51 0,-29 8,-56 23,-79 15,-24 37,-42 63,-56 27,-14 56,-20 88,-20 23,0 46,4 69,11 23,7 42,18 59,33 15,14 23,33 23,55 0,19 -6,35 -17,47 -12,13 -27,18 -45,18 -16,0 -31,-5 -42,-15 -11,-10 -16,-21 -16,-35 0,-10 2,-17 4,-24 2,-4 4,-9 7,-14 4,-5 5,-9 5,-11 0,-5 -4,-10 -14,-14 -9,-5 -19,-7 -33,-7 -16,0 -32,3 -44,10 -13,7 -22,15 -29,26 -7,10 -11,21 -11,32 0,10 3,17 9,25 6,7 14,13 22,16 9,5 21,10 37,15 16,5 25,8 25,8 81,28 122,70 122,128z"/>
 </g>
</svg>
