<?xml version="1.0" encoding="UTF-8" ?>
<!DOCTYPE svg PUBLIC "-//W3C//DTD SVG 1.1//EN" "http://www.w3.org/Graphics/SVG/1.1/DTD/svg11.dtd">
<svg width="16pt" height="16pt" viewBox="0 0 16 16" version="1.1" xmlns="http://www.w3.org/2000/svg">
<g id="#389aeafc">
<path fill="#389aea" opacity="1.00" d=" M 7.06 0.00 L 8.37 0.00 C 12.06 0.91 14.85 3.78 16.00 7.35 L 16.00 8.83 C 13.73 6.05 12.12 2.51 8.40 1.38 C 8.07 1.04 7.39 0.35 7.06 0.00 Z" />
<path fill="#389aea" opacity="1.00" d=" M 0.01 4.73 C 0.58 4.21 1.71 3.17 2.28 2.66 C 3.56 3.44 4.58 4.54 5.58 5.64 C 5.08 6.22 4.07 7.37 3.57 7.95 C 4.98 9.53 6.48 11.02 8.03 12.46 C 8.60 11.94 9.75 10.92 10.32 10.40 C 11.38 11.48 12.45 12.57 13.52 13.64 C 12.91 14.23 11.71 15.41 11.10 16.00 L 9.74 16.00 C 5.13 14.76 1.56 11.03 0.00 6.59 L 0.00 3.76 L 0.01 4.73 Z" />
<path fill="#389aea" opacity="1.00" d=" M 7.60 3.93 C 9.84 3.48 12.43 5.90 12.03 8.17 C 10.63 7.05 8.64 5.35 7.60 3.93 Z" />
</g>
</svg>
